<?xml version="1.0" encoding="utf-8"?>
<!-- Generator: Adobe Illustrator 25.4.1, SVG Export Plug-In . SVG Version: 6.00 Build 0)  -->
<svg version="1.1" id="Laag_1" xmlns="http://www.w3.org/2000/svg" xmlns:xlink="http://www.w3.org/1999/xlink" x="0px" y="0px"
	 viewBox="0 0 351.14 297.86" style="enable-background:new 0 0 351.14 297.86;" xml:space="preserve">
<style type="text/css">
	.st0{opacity:0.4;}
	.st1{fill:#DB1F5D;}
	.st2{opacity:0.49;}
	.st3{fill:#29ABE3;}
	.st4{opacity:0.91;}
	.st5{fill:#D7A0C9;}
	.st6{fill:#A8B3DC;}
	.st7{fill:#AD5CA0;}
	.st8{fill:#93D0D1;}
	.st9{fill:#F4EC99;}
	.st10{opacity:0.2;}
	.st11{fill:#FFFFFF;}
</style>
<g>
	<g class="st0">
		<polygon class="st1" points="182.17,76.3 156.02,78.21 147.13,99.56 173.53,97.41 		"/>
		<polygon class="st1" points="171.59,101.96 145.21,104.11 136.57,125.22 162.71,123.32 		"/>
		<polygon class="st1" points="149.06,155.95 122.65,158.1 114.02,179.44 140.4,177.33 		"/>
		<polygon class="st1" points="138.5,181.86 111.86,184.03 103.23,205.37 129.64,203.21 		"/>
		<polygon class="st1" points="124.83,86.38 147.13,85.18 154.84,66.69 132.74,67.66 		"/>
		<polygon class="st1" points="144.25,92.61 121.95,93.35 114.27,112.29 136.57,111.1 		"/>
		<polygon class="st1" points="121.7,146.63 99.4,147.57 91.49,166.51 114.04,165.33 		"/>
		<polygon class="st1" points="111.13,172.29 88.82,173.47 81.14,191.94 103.22,191.01 		"/>
		<polygon class="st1" points="105.16,72.93 122.91,72.24 128.67,58.55 110.68,59.5 		"/>
		<polygon class="st1" points="94.35,98.64 112.36,98.15 118.1,84 99.87,85.19 		"/>
		<polygon class="st1" points="71.82,152.84 90.06,152.12 95.58,138.19 77.57,139.15 		"/>
		<polygon class="st1" points="84.76,164.12 66.78,165.09 61.25,178.76 79.25,178.04 		"/>
		<polygon class="st1" points="89.07,53.29 102.73,51.61 107.52,39.87 93.86,42 		"/>
		<polygon class="st1" points="78.28,79.2 91.95,77.53 96.99,65.79 83.07,67.93 		"/>
		<polygon class="st1" points="56.23,133.16 69.64,131.5 74.46,119.99 60.77,121.9 		"/>
		<polygon class="st1" points="45.43,159.06 58.84,157.39 63.64,145.63 49.96,147.8 		"/>
		<polygon class="st1" points="87.87,27.13 77.8,27.84 74.44,35.76 84.53,35.52 		"/>
		<polygon class="st1" points="77.06,53.02 67.01,53.5 63.88,61.42 73.71,61.42 		"/>
		<polygon class="st1" points="54.75,107.27 44.69,107.73 41.33,115.41 51.4,115.18 		"/>
		<polygon class="st1" points="44.2,133.14 33.9,133.65 30.54,141.56 40.63,141.33 		"/>
		<path class="st1" d="M225.67,52.32L214.95,78.2c-0.11,0-0.21,0-0.32,0.01l-24.25,58.55c0.11,0,0.21-0.01,0.31-0.01l-7.55,18.24
			c-0.06,0-0.13,0.01-0.19,0.01l-23.74,56.88c0.13-0.01,0.25-0.01,0.38-0.02l-10.93,26.38c47.01-6.24,88.74,11.48,125.95,52.76v0
			l76.52-184.23C317.57,69.59,275.81,51.36,225.67,52.32z"/>
		<polygon class="st1" points="215.74,74.85 225.34,52.32 197.02,53.99 187.43,77.5 		"/>
		<polygon class="st1" points="214.07,78.96 185.99,80.87 176.18,104.39 204.7,101.75 		"/>
		<polygon class="st1" points="203.03,105.83 174.98,107.48 165.13,130.78 193.67,128.6 		"/>
		<polygon class="st1" points="192.01,132.68 163.68,134.37 154.1,157.64 182.42,155.23 		"/>
		<polygon class="st1" points="180.97,159.06 152.66,160.75 143.05,184.03 171.59,181.63 		"/>
		<polygon class="st1" points="169.69,186.41 141.37,188.11 131.79,211.62 160.1,209.22 		"/>
		<polygon class="st1" points="130.33,214.99 120.5,238.48 149.03,235.83 158.4,213.29 		"/>
		<polygon class="st1" points="184.55,70.31 193.44,49.22 167.29,51.1 158.4,72.47 		"/>
		<polygon class="st1" points="160.31,128.85 134.16,131.01 125.04,152.36 151.68,150.2 		"/>
		<polygon class="st1" points="101.08,210.86 92.19,231.98 118.34,230.06 127.2,208.96 		"/>
		<polygon class="st1" points="158.41,58.06 166.09,39.36 144.02,40.33 136.11,59.29 		"/>
		<polygon class="st1" points="103,139.15 125.33,137.97 132.98,119.48 110.68,120.19 		"/>
		<polygon class="st1" points="99.87,199.15 77.8,200.1 69.89,218.77 92.19,217.86 		"/>
		<polygon class="st1" points="134.18,45.1 139.94,31.44 121.95,32.39 116.44,45.83 		"/>
		<polygon class="st1" points="83.07,125.51 101.08,125.06 106.83,111.1 88.82,112.06 		"/>
		<polygon class="st1" points="55.51,191.93 49.96,205.61 67.96,204.89 73.72,190.99 		"/>
		<polygon class="st1" points="118.83,12.97 105.16,14.9 100.59,26.16 114.04,24.49 		"/>
		<polygon class="st1" points="67.24,106.07 80.67,104.39 85.71,92.61 72.04,94.77 		"/>
		<polygon class="st1" points="38.7,174.67 34.37,185.72 47.82,184.25 52.61,172.51 		"/>
		<polygon class="st1" points="99.38,0 88.82,0.97 85.48,8.64 95.77,8.4 		"/>
		<polygon class="st1" points="66.27,79.89 55.96,80.4 52.61,88.29 62.69,88.29 		"/>
		<polygon class="st1" points="19.49,168.46 29.58,168.18 32.93,159.78 22.62,160.52 		"/>
	</g>
	<g class="st2">
		<polygon class="st3" points="162.68,80.03 136.53,81.93 127.64,103.28 154.03,101.14 		"/>
		<polygon class="st3" points="152.1,105.69 125.72,107.84 117.08,128.94 143.21,127.04 		"/>
		<polygon class="st3" points="129.57,159.68 103.16,161.82 94.53,183.16 120.91,181.06 		"/>
		<polygon class="st3" points="119.01,185.58 92.37,187.76 83.74,209.1 110.15,206.93 		"/>
		<polygon class="st3" points="105.34,90.1 127.64,88.91 135.35,70.42 113.25,71.39 		"/>
		<polygon class="st3" points="124.76,96.34 102.45,97.07 94.77,116.02 117.08,114.83 		"/>
		<polygon class="st3" points="102.21,150.36 79.91,151.29 72,170.24 94.54,169.06 		"/>
		<polygon class="st3" points="91.63,176.02 69.33,177.2 61.65,195.67 83.72,194.73 		"/>
		<polygon class="st3" points="85.67,76.66 103.42,75.97 109.18,62.28 91.19,63.23 		"/>
		<polygon class="st3" points="74.86,102.36 92.87,101.87 98.61,87.72 80.38,88.92 		"/>
		<polygon class="st3" points="52.33,156.56 70.57,155.84 76.09,141.91 58.08,142.88 		"/>
		<polygon class="st3" points="65.27,167.85 47.29,168.81 41.75,182.48 59.76,181.76 		"/>
		<polygon class="st3" points="69.58,57.02 83.23,55.34 88.03,43.59 74.37,45.73 		"/>
		<polygon class="st3" points="58.78,82.93 72.46,81.25 77.5,69.51 63.58,71.66 		"/>
		<polygon class="st3" points="36.74,136.88 50.15,135.23 54.97,123.71 41.28,125.63 		"/>
		<polygon class="st3" points="25.93,162.79 39.35,161.12 44.15,149.36 30.47,151.52 		"/>
		<polygon class="st3" points="68.38,30.86 58.31,31.56 54.95,39.49 65.04,39.24 		"/>
		<polygon class="st3" points="57.57,56.75 47.52,57.22 44.39,65.15 54.22,65.15 		"/>
		<polygon class="st3" points="35.26,110.99 25.2,111.45 21.84,119.13 31.91,118.9 		"/>
		<polygon class="st3" points="24.71,136.87 14.41,137.37 11.05,145.28 21.14,145.05 		"/>
		<path class="st3" d="M210.18,56.04l-10.72,25.89c-0.11,0-0.21,0-0.32,0.01l-24.25,58.55c0.11,0,0.21-0.01,0.31-0.01l-7.55,18.24
			c-0.06,0-0.13,0.01-0.19,0.01l-23.74,56.88c0.13-0.01,0.25-0.01,0.38-0.02l-10.93,26.38c47.01-6.24,88.74,11.48,125.95,52.76v0
			l76.52-184.23C302.08,73.32,260.32,55.09,210.18,56.04z"/>
		<polygon class="st3" points="196.25,78.58 205.85,56.04 177.53,57.71 167.94,81.23 		"/>
		<polygon class="st3" points="194.58,82.68 166.5,84.6 156.69,108.11 185.21,105.47 		"/>
		<polygon class="st3" points="183.54,109.55 155.49,111.21 145.63,134.51 174.18,132.33 		"/>
		<polygon class="st3" points="172.52,136.41 144.19,138.09 134.61,161.36 162.92,158.96 		"/>
		<polygon class="st3" points="161.48,162.79 133.17,164.47 123.56,187.76 152.1,185.35 		"/>
		<polygon class="st3" points="150.2,190.14 121.88,191.84 112.29,215.35 140.61,212.94 		"/>
		<polygon class="st3" points="110.84,218.72 101.01,242.21 129.54,239.55 138.91,217.02 		"/>
		<polygon class="st3" points="165.06,74.04 173.95,52.94 147.8,54.83 138.91,76.2 		"/>
		<polygon class="st3" points="140.82,132.58 114.67,134.74 105.55,156.09 132.19,153.93 		"/>
		<polygon class="st3" points="81.59,214.59 72.7,235.71 98.85,233.79 107.71,212.68 		"/>
		<polygon class="st3" points="138.92,61.79 146.6,43.09 124.53,44.05 116.62,63.01 		"/>
		<polygon class="st3" points="83.51,142.88 105.84,141.7 113.49,123.21 91.19,123.92 		"/>
		<polygon class="st3" points="80.38,202.87 58.31,203.82 50.4,222.5 72.7,221.59 		"/>
		<polygon class="st3" points="114.69,48.82 120.45,35.16 102.45,36.12 96.95,49.56 		"/>
		<polygon class="st3" points="63.58,129.23 81.59,128.79 87.34,114.83 69.33,115.79 		"/>
		<polygon class="st3" points="36.02,195.65 30.47,209.34 48.47,208.62 54.23,194.72 		"/>
		<polygon class="st3" points="99.34,16.69 85.67,18.62 81.1,29.89 94.54,28.22 		"/>
		<polygon class="st3" points="47.75,109.8 61.18,108.11 66.22,96.34 52.55,98.5 		"/>
		<polygon class="st3" points="19.21,178.39 14.88,189.44 28.33,187.97 33.12,176.23 		"/>
		<polygon class="st3" points="79.89,3.73 69.33,4.69 65.99,12.37 76.28,12.13 		"/>
		<polygon class="st3" points="46.78,83.62 36.47,84.12 33.12,92.02 43.19,92.02 		"/>
		<polygon class="st3" points="0,172.18 10.09,171.91 13.44,163.51 3.13,164.24 		"/>
	</g>
	<g id="layer1_00000060718186155194665260000017561509510619652488_" transform="translate(-265.33769,281.58699)" class="st4">
		
			<g id="g1324_00000028316475957038609520000013374086778434071720_" transform="matrix(9.1470732,0,0,9.1470732,1731.4787,46.199847)">
			<g id="g1272_00000162350163816631190160000001516631999555299723_">
				<path id="path4536-6_00000132803465490309104210000014899023690816639160_" class="st5" d="M-142.65-25.04l0.95-2.31l-2.86,0.21
					l-0.97,2.33L-142.65-25.04z"/>
				<path id="path4538-8_00000085226946386376392970000018386994837718603964_" class="st5" d="M-143.84-22.2l0.97-2.33l-2.88,0.23
					l-0.95,2.31L-143.84-22.2z"/>
				<path id="path4542-0_00000125603231209927483890000005248899741962791829_" class="st6" d="M-148.22-18.4l-0.94,2.33l2.88-0.23
					l0.95-2.34L-148.22-18.4z"/>
				<path id="path4544-0_00000004511024221508530950000012212688226630380459_" class="st6" d="M-149.4-15.57l-0.94,2.33l2.89-0.24
					l0.97-2.33L-149.4-15.57z"/>
				<path id="path4550-3_00000067946985042733289230000008740966092962881174_" class="st5" d="M-147.11-28.29l-0.86,2.05l2.44-0.13
					l0.84-2.02L-147.11-28.29z"/>
				<path id="path4552-5_00000136410587923435608610000016694903673896010414_" class="st5" d="M-148.29-25.48l-0.84,2.07l2.44-0.13
					l0.84-2.02L-148.29-25.48z"/>
				<path id="path4556-1_00000178203151130791105420000011076029316642703521_" class="st6" d="M-150.76-19.55l-0.86,2.07l2.47-0.13
					l0.84-2.04L-150.76-19.55z"/>
				<path id="path4558-2_00000008833673326061313470000006390870602229520273_" class="st6" d="M-151.91-16.72l-0.84,2.02l2.41-0.1
					l0.86-2.05L-151.91-16.72z"/>
				<path id="path4564-1_00000111158780874967460890000002841662024100101780_" class="st5" d="M-149.53-29.18l-0.6,1.47l1.94-0.08
					l0.63-1.5L-149.53-29.18z"/>
				<path id="path4566-4_00000129910206629989310850000014860508813032917894_" class="st5" d="M-150.71-26.37l-0.6,1.47l1.97-0.05
					l0.63-1.55L-150.71-26.37z"/>
				<path id="path4570-3_00000023962768433147763180000013661003166617479071_" class="st6" d="M-153.15-20.47l-0.63,1.5l1.99-0.08
					l0.6-1.52L-153.15-20.47z"/>
				<path id="path4572-3_00000137098593879278538880000014256808826085293757_" class="st6" d="M-154.32-17.64l-0.6,1.49l1.97-0.08
					l0.6-1.52L-154.32-17.64z"/>
				<path id="path4578-4_00000139285904355331541280000001322056504856951703_" class="st5" d="M-151.36-31.1l-0.52,1.23l1.49-0.18
					l0.52-1.28L-151.36-31.1z"/>
				<path id="path4580-1_00000154405780338227458310000008567973487010055317_" class="st5" d="M-152.54-28.26l-0.52,1.23l1.49-0.18
					l0.55-1.28L-152.54-28.26z"/>
				<path id="path4584-2_00000068666411067794587880000016195352008338899843_" class="st6" d="M-154.98-22.36l-0.5,1.23l1.47-0.18
					l0.53-1.26L-154.98-22.36z"/>
				<path id="path4586-9_00000065045418647505167460000011502460468063730318_" class="st6" d="M-156.16-19.53l-0.5,1.23l1.47-0.18
					l0.52-1.29L-156.16-19.53z"/>
				<path id="path4592-2_00000180361965765975837610000013872997149806587836_" class="st5" d="M-153.12-32.64l-0.37,0.87l1.1-0.03
					l0.37-0.92L-153.12-32.64z"/>
				<path id="path4594-9_00000124847660533223383430000000490528059373541281_" class="st5" d="M-154.3-29.84l-0.34,0.87h1.07
					l0.37-0.92L-154.3-29.84z"/>
				<path id="path4598-2_00000061453577062291236820000012555085442754550967_" class="st6" d="M-156.74-23.91l-0.37,0.84l1.1-0.03
					l0.37-0.86L-156.74-23.91z"/>
				<path id="path4600-1_00000018220163851843370650000012659962155314756512_" class="st6" d="M-157.92-21.08l-0.37,0.86l1.1-0.03
					l0.39-0.89L-157.92-21.08z"/>
				<g>
					<path class="st7" d="M-136.52-29.97l-8.42,20.33c5.14-0.68,9.7,1.26,13.77,5.77v0l8.37-20.14
						C-126.47-28.08-131.03-30.07-136.52-29.97z"/>
					<polygon class="st7" points="-138.04,-27.5 -136.99,-29.97 -140.09,-29.78 -141.13,-27.21 					"/>
					<polygon class="st7" points="-138.22,-27.05 -141.29,-26.85 -142.36,-24.27 -139.25,-24.56 					"/>
					<polygon class="st7" points="-139.43,-24.12 -142.5,-23.94 -143.57,-21.39 -140.45,-21.63 					"/>
					<polygon class="st7" points="-140.63,-21.18 -143.73,-21 -144.78,-18.45 -141.68,-18.72 					"/>
					<polygon class="st7" points="-141.84,-18.3 -144.94,-18.11 -145.99,-15.57 -142.87,-15.83 					"/>
					<polygon class="st7" points="-143.07,-15.31 -146.17,-15.12 -147.22,-12.55 -144.12,-12.81 					"/>
					<polygon class="st7" points="-147.38,-12.18 -148.45,-9.61 -145.33,-9.9 -144.31,-12.37 					"/>
					<polygon class="st7" points="-141.45,-28 -140.48,-30.31 -143.34,-30.1 -144.31,-27.76 					"/>
					<polygon class="st7" points="-144.1,-21.6 -146.96,-21.36 -147.95,-19.03 -145.04,-19.27 					"/>
					<polygon class="st7" points="-150.57,-12.63 -151.55,-10.33 -148.69,-10.53 -147.72,-12.84 					"/>
					<polygon class="st7" points="-144.31,-29.34 -143.47,-31.38 -145.88,-31.28 -146.75,-29.2 					"/>
					<polygon class="st7" points="-147.09,-22.62 -149.53,-22.55 -150.36,-20.47 -147.92,-20.6 					"/>
					<polygon class="st7" points="-150.71,-13.92 -153.12,-13.81 -153.98,-11.77 -151.55,-11.87 					"/>
					<polygon class="st7" points="-146.96,-30.76 -146.33,-32.25 -148.29,-32.15 -148.9,-30.68 					"/>
					<polygon class="st7" points="-152.54,-21.97 -150.57,-22.01 -149.95,-23.54 -151.91,-23.44 					"/>
					<polygon class="st7" points="-155.56,-14.7 -156.16,-13.21 -154.2,-13.29 -153.57,-14.81 					"/>
					<polygon class="st7" points="-148.63,-34.27 -150.13,-34.06 -150.63,-32.83 -149.16,-33.01 					"/>
					<polygon class="st7" points="-152.26,-25.56 -153.75,-25.33 -154.27,-24.09 -152.81,-24.27 					"/>
					<polygon class="st7" points="-157.39,-16.59 -157.87,-15.38 -156.4,-15.54 -155.87,-16.83 					"/>
					<polygon class="st7" points="-150.76,-35.69 -151.91,-35.58 -152.28,-34.74 -151.16,-34.77 					"/>
					<polygon class="st7" points="-154.38,-26.95 -155.51,-26.9 -155.87,-26.03 -154.77,-26.03 					"/>
					<polygon class="st7" points="-159.49,-17.27 -158.39,-17.3 -158.02,-18.22 -159.15,-18.14 					"/>
				</g>
				<path id="path4604-0_00000026126044707304935720000004125380826578544035_" class="st5" d="M-135.21-20.13l2.67-6.42
					c-1.31-0.45-3.04-0.63-5.19-0.58l-2.65,6.4C-138.41-20.82-136.67-20.6-135.21-20.13L-135.21-20.13z"/>
				<path id="path4606-4_00000159452836378999123830000001069952589455298194_" class="st8" d="M-126.37-23.49
					c-1.21-1.23-2.62-2.1-4.25-2.62l-2.73,6.58l1.84,0.76c0.71,0.29,1.52,0.87,2.46,1.76L-126.37-23.49z"/>
				<path id="path4608-8_00000023964450632915979800000014049555485272237213_" class="st9" d="M-129.83-15.17
					c-1.21-1.21-2.65-2.02-4.3-2.47l-2.62,6.32c1.52,0.53,2.94,1.39,4.3,2.54L-129.83-15.17z"/>
				<path id="path4610-7_00000108996546337909522950000017844930507763302806_" class="st6" d="M-138.56-12l2.54-6.14
					c-1.6-0.52-3.33-0.73-5.16-0.6l-2.6,6.22C-142.24-12.61-140.5-12.42-138.56-12z"/>
			</g>
		</g>
	</g>
	<g class="st10">
		<polygon class="st11" points="170.57,83.15 144.42,85.06 135.53,106.41 161.93,104.26 		"/>
		<polygon class="st11" points="160,108.81 133.62,110.96 124.97,132.07 151.11,130.17 		"/>
		<polygon class="st11" points="137.47,162.8 111.06,164.95 102.43,186.29 128.81,184.18 		"/>
		<polygon class="st11" points="126.9,188.71 100.26,190.88 91.63,212.22 118.04,210.06 		"/>
		<polygon class="st11" points="113.23,93.23 135.53,92.03 143.24,73.54 121.14,74.51 		"/>
		<polygon class="st11" points="132.65,99.46 110.35,100.2 102.67,119.14 124.97,117.95 		"/>
		<polygon class="st11" points="110.1,153.48 87.8,154.42 79.89,173.36 102.44,172.18 		"/>
		<polygon class="st11" points="99.53,179.14 77.23,180.32 69.55,198.79 91.62,197.86 		"/>
		<polygon class="st11" points="93.56,79.78 111.31,79.09 117.08,65.4 99.08,66.35 		"/>
		<polygon class="st11" points="82.76,105.49 100.77,105 106.5,90.85 88.28,92.04 		"/>
		<polygon class="st11" points="60.22,159.69 78.46,158.97 83.98,145.04 65.97,146 		"/>
		<polygon class="st11" points="73.16,170.97 55.18,171.94 49.65,185.61 67.66,184.89 		"/>
		<polygon class="st11" points="77.47,60.14 91.13,58.46 95.93,46.72 82.27,48.85 		"/>
		<polygon class="st11" points="66.68,86.05 80.35,84.38 85.4,72.64 71.48,74.78 		"/>
		<polygon class="st11" points="44.64,140.01 58.05,138.35 62.86,126.84 49.17,128.75 		"/>
		<polygon class="st11" points="33.83,165.91 47.24,164.24 52.04,152.48 38.37,154.65 		"/>
		<polygon class="st11" points="76.27,33.98 66.2,34.69 62.85,42.61 72.93,42.37 		"/>
		<polygon class="st11" points="65.47,59.87 55.41,60.35 52.29,68.27 62.11,68.27 		"/>
		<polygon class="st11" points="43.15,114.12 33.09,114.58 29.74,122.26 39.81,122.03 		"/>
		<polygon class="st11" points="32.6,139.99 22.3,140.5 18.95,148.41 29.03,148.18 		"/>
		<path class="st11" d="M218.08,59.16l-10.72,25.89c-0.11,0-0.21,0-0.32,0.01l-24.25,58.55c0.11,0,0.21-0.01,0.31-0.01l-7.55,18.24
			c-0.06,0-0.13,0.01-0.19,0.01l-23.74,56.88c0.13-0.01,0.25-0.01,0.38-0.02l-10.93,26.38c47.01-6.24,88.74,11.48,125.95,52.76v0
			l76.52-184.23C309.97,76.44,268.22,58.21,218.08,59.16z"/>
		<polygon class="st11" points="204.14,81.7 213.74,59.16 185.43,60.84 175.83,84.35 		"/>
		<polygon class="st11" points="202.47,85.81 174.39,87.72 164.58,111.23 193.11,108.6 		"/>
		<polygon class="st11" points="191.44,112.68 163.38,114.33 153.53,137.63 182.07,135.45 		"/>
		<polygon class="st11" points="180.41,139.53 152.09,141.22 142.51,164.49 170.82,162.08 		"/>
		<polygon class="st11" points="169.38,165.91 141.07,167.6 131.46,190.88 160,188.48 		"/>
		<polygon class="st11" points="158.1,193.26 129.77,194.96 120.19,218.47 148.5,216.07 		"/>
		<polygon class="st11" points="118.73,221.84 108.91,245.33 137.44,242.68 146.8,220.14 		"/>
		<polygon class="st11" points="172.95,77.16 181.84,56.07 155.69,57.95 146.8,79.32 		"/>
		<polygon class="st11" points="148.72,135.7 122.57,137.86 113.45,159.21 140.09,157.05 		"/>
		<polygon class="st11" points="89.49,217.71 80.6,238.83 106.75,236.91 115.61,215.81 		"/>
		<polygon class="st11" points="146.82,64.91 154.5,46.21 132.42,47.18 124.51,66.14 		"/>
		<polygon class="st11" points="91.4,146 113.74,144.82 121.39,126.33 99.08,127.04 		"/>
		<polygon class="st11" points="88.28,206 66.2,206.95 58.29,225.62 80.6,224.71 		"/>
		<polygon class="st11" points="122.58,51.95 128.34,38.29 110.35,39.24 104.85,52.68 		"/>
		<polygon class="st11" points="71.48,132.36 89.49,131.91 95.24,117.95 77.23,118.91 		"/>
		<polygon class="st11" points="43.91,198.78 38.37,212.46 56.36,211.74 62.13,197.84 		"/>
		<polygon class="st11" points="107.24,19.82 93.56,21.75 89,33.01 102.44,31.34 		"/>
		<polygon class="st11" points="55.64,112.92 69.07,111.23 74.11,99.46 60.44,101.62 		"/>
		<polygon class="st11" points="27.1,181.52 22.78,192.57 36.22,191.1 41.02,179.36 		"/>
		<polygon class="st11" points="87.79,6.85 77.23,7.82 73.88,15.49 84.17,15.25 		"/>
		<polygon class="st11" points="54.68,86.74 44.36,87.25 41.02,95.14 51.09,95.14 		"/>
		<polygon class="st11" points="7.9,175.31 17.98,175.03 21.34,166.63 11.02,167.37 		"/>
	</g>
</g>
</svg>
