<?xml version="1.0" encoding="utf-8"?>
<!-- Generator: Adobe Illustrator 25.4.1, SVG Export Plug-In . SVG Version: 6.00 Build 0)  -->
<svg version="1.1" id="Laag_1" xmlns="http://www.w3.org/2000/svg" xmlns:xlink="http://www.w3.org/1999/xlink" x="0px" y="0px"
	 viewBox="0 0 351.14 297.86" style="enable-background:new 0 0 351.14 297.86;" xml:space="preserve">
<style type="text/css">
	.st0{opacity:0.4;}
	.st1{fill:#DB1F5D;}
	.st2{opacity:0.49;}
	.st3{fill:#29ABE3;}
	.st4{opacity:0.91;}
	.st5{fill:#D7A0C9;}
	.st6{fill:#A8B3DC;}
	.st7{fill:#AD5CA0;}
	.st8{fill:#93D0D1;}
	.st9{fill:#F4EC99;}
	.st10{opacity:0.2;}
	.st11{fill:#FFFFFF;}
</style>
<g>
	<g class="st0">
		<polygon class="st1" points="168.97,76.3 195.12,78.21 204.01,99.56 177.61,97.41 		"/>
		<polygon class="st1" points="179.54,101.96 205.92,104.11 214.57,125.22 188.43,123.32 		"/>
		<polygon class="st1" points="202.08,155.95 228.49,158.1 237.12,179.44 210.73,177.33 		"/>
		<polygon class="st1" points="212.64,181.86 239.28,184.03 247.91,205.37 221.5,203.21 		"/>
		<polygon class="st1" points="226.31,86.38 204.01,85.18 196.3,66.69 218.4,67.66 		"/>
		<polygon class="st1" points="206.89,92.61 229.19,93.35 236.87,112.29 214.57,111.1 		"/>
		<polygon class="st1" points="229.44,146.63 251.74,147.57 259.65,166.51 237.1,165.33 		"/>
		<polygon class="st1" points="240.01,172.29 262.31,173.47 269.99,191.94 247.92,191.01 		"/>
		<polygon class="st1" points="245.98,72.93 228.23,72.24 222.46,58.55 240.46,59.5 		"/>
		<polygon class="st1" points="256.78,98.64 238.77,98.15 233.04,84 251.26,85.19 		"/>
		<polygon class="st1" points="279.32,152.84 261.08,152.12 255.56,138.19 273.57,139.15 		"/>
		<polygon class="st1" points="266.38,164.12 284.36,165.09 289.89,178.76 271.88,178.04 		"/>
		<polygon class="st1" points="262.07,53.29 248.41,51.61 243.61,39.87 257.27,42 		"/>
		<polygon class="st1" points="272.86,79.2 259.19,77.53 254.15,65.79 268.06,67.93 		"/>
		<polygon class="st1" points="294.91,133.16 281.49,131.5 276.68,119.99 290.37,121.9 		"/>
		<polygon class="st1" points="305.71,159.06 292.3,157.39 287.5,145.63 301.17,147.8 		"/>
		<polygon class="st1" points="263.27,27.13 273.34,27.84 276.69,35.76 266.61,35.52 		"/>
		<polygon class="st1" points="274.07,53.02 284.13,53.5 287.25,61.42 277.43,61.42 		"/>
		<polygon class="st1" points="296.39,107.27 306.45,107.73 309.8,115.41 299.73,115.18 		"/>
		<polygon class="st1" points="306.94,133.14 317.24,133.65 320.59,141.56 310.51,141.33 		"/>
		<path class="st1" d="M125.46,52.32l10.72,25.89c0.11,0,0.21,0,0.32,0.01l24.25,58.55c-0.11,0-0.21-0.01-0.31-0.01l7.55,18.24
			c0.06,0,0.13,0.01,0.19,0.01l23.74,56.88c-0.13-0.01-0.25-0.01-0.38-0.02l10.93,26.38c-47.01-6.24-88.74,11.48-125.95,52.76v0
			L0,106.78C33.57,69.59,75.32,51.36,125.46,52.32z"/>
		<polygon class="st1" points="135.4,74.85 125.8,52.32 154.11,53.99 163.71,77.5 		"/>
		<polygon class="st1" points="137.07,78.96 165.15,80.87 174.96,104.39 146.43,101.75 		"/>
		<polygon class="st1" points="148.1,105.83 176.16,107.48 186.01,130.78 157.47,128.6 		"/>
		<polygon class="st1" points="159.13,132.68 187.45,134.37 197.03,157.64 168.72,155.23 		"/>
		<polygon class="st1" points="170.16,159.06 198.47,160.75 208.08,184.03 179.54,181.63 		"/>
		<polygon class="st1" points="181.44,186.41 209.77,188.11 219.35,211.62 191.04,209.22 		"/>
		<polygon class="st1" points="220.81,214.99 230.63,238.48 202.1,235.83 192.74,213.29 		"/>
		<polygon class="st1" points="166.59,70.31 157.7,49.22 183.85,51.1 192.74,72.47 		"/>
		<polygon class="st1" points="190.82,128.85 216.97,131.01 226.09,152.36 199.45,150.2 		"/>
		<polygon class="st1" points="250.05,210.86 258.94,231.98 232.79,230.06 223.93,208.96 		"/>
		<polygon class="st1" points="192.72,58.06 185.05,39.36 207.12,40.33 215.03,59.29 		"/>
		<polygon class="st1" points="248.14,139.15 225.81,137.97 218.15,119.48 240.46,120.19 		"/>
		<polygon class="st1" points="251.26,199.15 273.34,200.1 281.25,218.77 258.94,217.86 		"/>
		<polygon class="st1" points="216.96,45.1 211.2,31.44 229.19,32.39 234.7,45.83 		"/>
		<polygon class="st1" points="268.06,125.51 250.05,125.06 244.31,111.1 262.31,112.06 		"/>
		<polygon class="st1" points="295.63,191.93 301.17,205.61 283.18,204.89 277.41,190.99 		"/>
		<polygon class="st1" points="232.3,12.97 245.98,14.9 250.54,26.16 237.1,24.49 		"/>
		<polygon class="st1" points="283.9,106.07 270.47,104.39 265.43,92.61 279.1,94.77 		"/>
		<polygon class="st1" points="312.44,174.67 316.76,185.72 303.32,184.25 298.52,172.51 		"/>
		<polygon class="st1" points="251.75,0 262.31,0.97 265.66,8.64 255.37,8.4 		"/>
		<polygon class="st1" points="284.86,79.89 295.18,80.4 298.52,88.29 288.45,88.29 		"/>
		<polygon class="st1" points="331.65,168.46 321.56,168.18 318.2,159.78 328.52,160.52 		"/>
	</g>
	<g class="st2">
		<polygon class="st3" points="188.46,80.03 214.61,81.93 223.5,103.28 197.1,101.14 		"/>
		<polygon class="st3" points="199.03,105.69 225.41,107.84 234.06,128.94 207.92,127.04 		"/>
		<polygon class="st3" points="221.57,159.68 247.98,161.82 256.61,183.16 230.23,181.06 		"/>
		<polygon class="st3" points="232.13,185.58 258.77,187.76 267.4,209.1 240.99,206.93 		"/>
		<polygon class="st3" points="245.8,90.1 223.5,88.91 215.79,70.42 237.89,71.39 		"/>
		<polygon class="st3" points="226.38,96.34 248.68,97.07 256.36,116.02 234.06,114.83 		"/>
		<polygon class="st3" points="248.93,150.36 271.23,151.29 279.14,170.24 256.59,169.06 		"/>
		<polygon class="st3" points="259.5,176.02 281.81,177.2 289.49,195.67 267.41,194.73 		"/>
		<polygon class="st3" points="265.47,76.66 247.72,75.97 241.95,62.28 259.95,63.23 		"/>
		<polygon class="st3" points="276.27,102.36 258.26,101.87 252.53,87.72 270.76,88.92 		"/>
		<polygon class="st3" points="298.81,156.56 280.57,155.84 275.05,141.91 293.06,142.88 		"/>
		<polygon class="st3" points="285.87,167.85 303.85,168.81 309.38,182.48 291.37,181.76 		"/>
		<polygon class="st3" points="281.56,57.02 267.9,55.34 263.1,43.59 276.76,45.73 		"/>
		<polygon class="st3" points="292.35,82.93 278.68,81.25 273.64,69.51 287.55,71.66 		"/>
		<polygon class="st3" points="314.4,136.88 300.98,135.23 296.17,123.71 309.86,125.63 		"/>
		<polygon class="st3" points="325.2,162.79 311.79,161.12 306.99,149.36 320.66,151.52 		"/>
		<polygon class="st3" points="282.76,30.86 292.83,31.56 296.18,39.49 286.1,39.24 		"/>
		<polygon class="st3" points="293.56,56.75 303.62,57.22 306.75,65.15 296.92,65.15 		"/>
		<polygon class="st3" points="315.88,110.99 325.94,111.45 329.29,119.13 319.22,118.9 		"/>
		<polygon class="st3" points="326.43,136.87 336.73,137.37 340.09,145.28 330,145.05 		"/>
		<path class="st3" d="M140.95,56.04l10.72,25.89c0.11,0,0.21,0,0.32,0.01l24.25,58.55c-0.11,0-0.21-0.01-0.31-0.01l7.55,18.24
			c0.06,0,0.13,0.01,0.19,0.01l23.74,56.88c-0.13-0.01-0.25-0.01-0.38-0.02l10.93,26.38c-47.01-6.24-88.74,11.48-125.95,52.76v0
			L15.49,110.5C49.06,73.32,90.82,55.09,140.95,56.04z"/>
		<polygon class="st3" points="154.89,78.58 145.29,56.04 173.6,57.71 183.2,81.23 		"/>
		<polygon class="st3" points="156.56,82.68 184.64,84.6 194.45,108.11 165.92,105.47 		"/>
		<polygon class="st3" points="167.59,109.55 195.65,111.21 205.5,134.51 176.96,132.33 		"/>
		<polygon class="st3" points="178.62,136.41 206.94,138.09 216.52,161.36 188.21,158.96 		"/>
		<polygon class="st3" points="189.65,162.79 217.96,164.47 227.57,187.76 199.03,185.35 		"/>
		<polygon class="st3" points="200.93,190.14 229.26,191.84 238.84,215.35 210.53,212.94 		"/>
		<polygon class="st3" points="240.3,218.72 250.12,242.21 221.6,239.55 212.23,217.02 		"/>
		<polygon class="st3" points="186.08,74.04 177.19,52.94 203.34,54.83 212.23,76.2 		"/>
		<polygon class="st3" points="210.31,132.58 236.46,134.74 245.58,156.09 218.94,153.93 		"/>
		<polygon class="st3" points="269.54,214.59 278.43,235.71 252.28,233.79 243.42,212.68 		"/>
		<polygon class="st3" points="212.22,61.79 204.54,43.09 226.61,44.05 234.52,63.01 		"/>
		<polygon class="st3" points="267.63,142.88 245.3,141.7 237.65,123.21 259.95,123.92 		"/>
		<polygon class="st3" points="270.76,202.87 292.83,203.82 300.74,222.5 278.43,221.59 		"/>
		<polygon class="st3" points="236.45,48.82 230.69,35.16 248.68,36.12 254.19,49.56 		"/>
		<polygon class="st3" points="287.55,129.23 269.54,128.79 263.8,114.83 281.81,115.79 		"/>
		<polygon class="st3" points="315.12,195.65 320.66,209.34 302.67,208.62 296.91,194.72 		"/>
		<polygon class="st3" points="251.79,16.69 265.47,18.62 270.03,29.89 256.59,28.22 		"/>
		<polygon class="st3" points="303.39,109.8 289.96,108.11 284.92,96.34 298.59,98.5 		"/>
		<polygon class="st3" points="331.93,178.39 336.25,189.44 322.81,187.97 318.01,176.23 		"/>
		<polygon class="st3" points="271.24,3.73 281.81,4.69 285.15,12.37 274.86,12.13 		"/>
		<polygon class="st3" points="304.35,83.62 314.67,84.12 318.01,92.02 307.94,92.02 		"/>
		<polygon class="st3" points="351.14,172.18 341.05,171.91 337.69,163.51 348.01,164.24 		"/>
	</g>
	<g id="layer1_00000060718186155194665260000017561509510619652488_" transform="translate(-265.33769,281.58699)" class="st4">
		
			<g id="g1324_00000028316475957038609520000013374086778434071720_" transform="matrix(9.1470732,0,0,9.1470732,1731.4787,46.199847)">
			<g id="g1272_00000162350163816631190160000001516631999555299723_">
				<path id="path4536-6_00000132803465490309104210000014899023690816639160_" class="st5" d="M-136.64-24.8l-0.97-2.33l-2.86-0.21
					l0.95,2.31L-136.64-24.8z"/>
				<path id="path4538-8_00000085226946386376392970000018386994837718603964_" class="st5" d="M-135.49-22l-0.95-2.31l-2.88-0.23
					l0.97,2.33L-135.49-22z"/>
				<path id="path4542-0_00000125603231209927483890000005248899741962791829_" class="st6" d="M-136.85-18.64l0.95,2.34l2.88,0.23
					l-0.94-2.33L-136.85-18.64z"/>
				<path id="path4544-0_00000004511024221508530950000012212688226630380459_" class="st6" d="M-135.7-15.81l0.97,2.33l2.89,0.24
					l-0.94-2.33L-135.7-15.81z"/>
				<path id="path4550-3_00000067946985042733289230000008740966092962881174_" class="st5" d="M-137.49-28.4l0.84,2.02l2.44,0.13
					l-0.86-2.05L-137.49-28.4z"/>
				<path id="path4552-5_00000136410587923435608610000016694903673896010414_" class="st5" d="M-136.33-25.56l0.84,2.02l2.44,0.13
					l-0.84-2.07L-136.33-25.56z"/>
				<path id="path4556-1_00000178203151130791105420000011076029316642703521_" class="st6" d="M-133.86-19.66l0.84,2.04l2.47,0.13
					l-0.86-2.07L-133.86-19.66z"/>
				<path id="path4558-2_00000008833673326061313470000006390870602229520273_" class="st6" d="M-132.71-16.85l0.86,2.05l2.41,0.1
					l-0.84-2.02L-132.71-16.85z"/>
				<path id="path4564-1_00000111158780874967460890000002841662024100101780_" class="st5" d="M-134.62-29.29l0.63,1.5l1.94,0.08
					l-0.6-1.47L-134.62-29.29z"/>
				<path id="path4566-4_00000129910206629989310850000014860508813032917894_" class="st5" d="M-133.47-26.5l0.63,1.55l1.97,0.05
					l-0.6-1.47L-133.47-26.5z"/>
				<path id="path4570-3_00000023962768433147763180000013661003166617479071_" class="st6" d="M-131.01-20.58l0.6,1.52l1.99,0.08
					l-0.63-1.5L-131.01-20.58z"/>
				<path id="path4572-3_00000137098593879278538880000014256808826085293757_" class="st6" d="M-129.82-17.74l0.6,1.52l1.97,0.08
					l-0.6-1.49L-129.82-17.74z"/>
				<path id="path4578-4_00000139285904355331541280000001322056504856951703_" class="st5" d="M-132.31-31.33l0.52,1.28l1.49,0.18
					l-0.52-1.23L-132.31-31.33z"/>
				<path id="path4580-1_00000154405780338227458310000008567973487010055317_" class="st5" d="M-131.16-28.49l0.55,1.28l1.49,0.18
					l-0.52-1.23L-131.16-28.49z"/>
				<path id="path4584-2_00000068666411067794587880000016195352008338899843_" class="st6" d="M-128.7-22.57l0.53,1.26l1.47,0.18
					l-0.5-1.23L-128.7-22.57z"/>
				<path id="path4586-9_00000065045418647505167460000011502460468063730318_" class="st6" d="M-127.51-19.77l0.52,1.29l1.47,0.18
					l-0.5-1.23L-127.51-19.77z"/>
				<path id="path4592-2_00000180361965765975837610000013872997149806587836_" class="st5" d="M-130.16-32.72l0.37,0.92l1.1,0.03
					l-0.37-0.87L-130.16-32.72z"/>
				<path id="path4594-9_00000124847660533223383430000000490528059373541281_" class="st5" d="M-128.98-29.89l0.37,0.92h1.07
					l-0.34-0.87L-128.98-29.89z"/>
				<path id="path4598-2_00000061453577062291236820000012555085442754550967_" class="st6" d="M-126.54-23.96l0.37,0.86l1.1,0.03
					l-0.37-0.84L-126.54-23.96z"/>
				<path id="path4600-1_00000018220163851843370650000012659962155314756512_" class="st6" d="M-125.39-21.13l0.39,0.89l1.1,0.03
					l-0.37-0.86L-125.39-21.13z"/>
				<g>
					<path class="st7" d="M-145.67-29.97l8.42,20.33c-5.14-0.68-9.7,1.26-13.77,5.77v0l-8.37-20.14
						C-155.71-28.08-151.15-30.07-145.67-29.97z"/>
					<polygon class="st7" points="-144.14,-27.5 -145.19,-29.97 -142.1,-29.78 -141.05,-27.21 					"/>
					<polygon class="st7" points="-143.96,-27.05 -140.89,-26.85 -139.82,-24.27 -142.94,-24.56 					"/>
					<polygon class="st7" points="-142.75,-24.12 -139.69,-23.94 -138.61,-21.39 -141.73,-21.63 					"/>
					<polygon class="st7" points="-141.55,-21.18 -138.45,-21 -137.4,-18.45 -140.5,-18.72 					"/>
					<polygon class="st7" points="-140.34,-18.3 -137.25,-18.11 -136.2,-15.57 -139.32,-15.83 					"/>
					<polygon class="st7" points="-139.11,-15.31 -136.01,-15.12 -134.96,-12.55 -138.06,-12.81 					"/>
					<polygon class="st7" points="-134.81,-12.18 -133.73,-9.61 -136.85,-9.9 -137.87,-12.37 					"/>
					<polygon class="st7" points="-140.73,-28 -141.7,-30.31 -138.85,-30.1 -137.87,-27.76 					"/>
					<polygon class="st7" points="-138.08,-21.6 -135.22,-21.36 -134.23,-19.03 -137.14,-19.27 					"/>
					<polygon class="st7" points="-131.61,-12.63 -130.64,-10.33 -133.5,-10.53 -134.46,-12.84 					"/>
					<polygon class="st7" points="-137.88,-29.34 -138.72,-31.38 -136.3,-31.28 -135.44,-29.2 					"/>
					<polygon class="st7" points="-135.1,-22.62 -132.66,-22.55 -131.82,-20.47 -134.26,-20.6 					"/>
					<polygon class="st7" points="-131.48,-13.92 -129.06,-13.81 -128.2,-11.77 -130.64,-11.87 					"/>
					<polygon class="st7" points="-135.23,-30.76 -135.86,-32.25 -133.89,-32.15 -133.29,-30.68 					"/>
					<polygon class="st7" points="-129.64,-21.97 -131.61,-22.01 -132.24,-23.54 -130.27,-23.44 					"/>
					<polygon class="st7" points="-126.63,-14.7 -126.02,-13.21 -127.99,-13.29 -128.62,-14.81 					"/>
					<polygon class="st7" points="-133.55,-34.27 -132.05,-34.06 -131.55,-32.83 -133.02,-33.01 					"/>
					<polygon class="st7" points="-129.93,-25.56 -128.43,-25.33 -127.91,-24.09 -129.38,-24.27 					"/>
					<polygon class="st7" points="-124.79,-16.59 -124.32,-15.38 -125.79,-15.54 -126.31,-16.83 					"/>
					<polygon class="st7" points="-131.42,-35.69 -130.27,-35.58 -129.9,-34.74 -131.03,-34.77 					"/>
					<polygon class="st7" points="-127.8,-26.95 -126.67,-26.9 -126.31,-26.03 -127.41,-26.03 					"/>
					<polygon class="st7" points="-122.69,-17.27 -123.79,-17.3 -124.16,-18.22 -123.03,-18.14 					"/>
				</g>
				<path id="path4604-0_00000026126044707304935720000004125380826578544035_" class="st5" d="M-146.98-20.13
					c1.47-0.47,3.2-0.68,5.17-0.6l-2.65-6.4c-2.15-0.05-3.88,0.13-5.19,0.58L-146.98-20.13L-146.98-20.13z"/>
				<path id="path4606-4_00000159452836378999123830000001069952589455298194_" class="st8" d="M-153.14-17.01
					c0.94-0.89,1.76-1.47,2.46-1.76l1.84-0.76l-2.73-6.58c-1.62,0.53-3.04,1.39-4.25,2.62L-153.14-17.01z"/>
				<path id="path4608-8_00000023964450632915979800000014049555485272237213_" class="st9" d="M-149.73-8.78
					c1.36-1.15,2.78-2.02,4.3-2.54l-2.62-6.32c-1.65,0.44-3.09,1.26-4.3,2.47L-149.73-8.78z"/>
				<path id="path4610-7_00000108996546337909522950000017844930507763302806_" class="st6" d="M-138.4-12.52l-2.6-6.22
					c-1.84-0.13-3.56,0.08-5.16,0.6l2.54,6.14C-141.68-12.42-139.95-12.61-138.4-12.52z"/>
			</g>
		</g>
	</g>
	<g class="st10">
		<polygon class="st11" points="180.56,83.15 206.71,85.06 215.6,106.41 189.21,104.26 		"/>
		<polygon class="st11" points="191.14,108.81 217.52,110.96 226.16,132.07 200.03,130.17 		"/>
		<polygon class="st11" points="213.67,162.8 240.08,164.95 248.71,186.29 222.33,184.18 		"/>
		<polygon class="st11" points="224.23,188.71 250.87,190.88 259.5,212.22 233.09,210.06 		"/>
		<polygon class="st11" points="237.91,93.23 215.6,92.03 207.89,73.54 230,74.51 		"/>
		<polygon class="st11" points="218.48,99.46 240.79,100.2 248.47,119.14 226.16,117.95 		"/>
		<polygon class="st11" points="241.03,153.48 263.34,154.42 271.25,173.36 248.7,172.18 		"/>
		<polygon class="st11" points="251.61,179.14 273.91,180.32 281.59,198.79 259.52,197.86 		"/>
		<polygon class="st11" points="257.57,79.78 239.82,79.09 234.06,65.4 252.05,66.35 		"/>
		<polygon class="st11" points="268.38,105.49 250.37,105 244.63,90.85 262.86,92.04 		"/>
		<polygon class="st11" points="290.91,159.69 272.67,158.97 267.15,145.04 285.16,146 		"/>
		<polygon class="st11" points="277.97,170.97 295.95,171.94 301.49,185.61 283.48,184.89 		"/>
		<polygon class="st11" points="273.67,60.14 260.01,58.46 255.21,46.72 268.87,48.85 		"/>
		<polygon class="st11" points="284.46,86.05 270.78,84.38 265.74,72.64 279.66,74.78 		"/>
		<polygon class="st11" points="306.5,140.01 293.09,138.35 288.28,126.84 301.96,128.75 		"/>
		<polygon class="st11" points="317.31,165.91 303.89,164.24 299.1,152.48 312.77,154.65 		"/>
		<polygon class="st11" points="274.86,33.98 284.93,34.69 288.29,42.61 278.2,42.37 		"/>
		<polygon class="st11" points="285.67,59.87 295.72,60.35 298.85,68.27 289.02,68.27 		"/>
		<polygon class="st11" points="307.99,114.12 318.04,114.58 321.4,122.26 311.33,122.03 		"/>
		<polygon class="st11" points="318.53,139.99 328.83,140.5 332.19,148.41 322.11,148.18 		"/>
		<path class="st11" d="M133.06,59.16l10.72,25.89c0.11,0,0.21,0,0.32,0.01l24.25,58.55c-0.11,0-0.21-0.01-0.31-0.01l7.55,18.24
			c0.06,0,0.13,0.01,0.19,0.01l23.74,56.88c-0.13-0.01-0.25-0.01-0.38-0.02l10.93,26.38c-47.01-6.24-88.74,11.48-125.95,52.76v0
			L7.6,113.63C41.17,76.44,82.92,58.21,133.06,59.16z"/>
		<polygon class="st11" points="146.99,81.7 137.4,59.16 165.71,60.84 175.3,84.35 		"/>
		<polygon class="st11" points="148.66,85.81 176.74,87.72 186.56,111.23 158.03,108.6 		"/>
		<polygon class="st11" points="159.7,112.68 187.75,114.33 197.61,137.63 169.06,135.45 		"/>
		<polygon class="st11" points="170.72,139.53 199.05,141.22 208.63,164.49 180.32,162.08 		"/>
		<polygon class="st11" points="181.76,165.91 210.07,167.6 219.68,190.88 191.14,188.48 		"/>
		<polygon class="st11" points="193.04,193.26 221.37,194.96 230.95,218.47 202.64,216.07 		"/>
		<polygon class="st11" points="232.4,221.84 242.23,245.33 213.7,242.68 204.34,220.14 		"/>
		<polygon class="st11" points="178.19,77.16 169.3,56.07 195.45,57.95 204.34,79.32 		"/>
		<polygon class="st11" points="202.42,135.7 228.57,137.86 237.69,159.21 211.05,157.05 		"/>
		<polygon class="st11" points="261.65,217.71 270.54,238.83 244.39,236.91 235.53,215.81 		"/>
		<polygon class="st11" points="204.32,64.91 196.64,46.21 218.71,47.18 226.62,66.14 		"/>
		<polygon class="st11" points="259.73,146 237.4,144.82 229.75,126.33 252.05,127.04 		"/>
		<polygon class="st11" points="262.86,206 284.93,206.95 292.84,225.62 270.54,224.71 		"/>
		<polygon class="st11" points="228.55,51.95 222.79,38.29 240.79,39.24 246.29,52.68 		"/>
		<polygon class="st11" points="279.66,132.36 261.65,131.91 255.9,117.95 273.91,118.91 		"/>
		<polygon class="st11" points="307.22,198.78 312.77,212.46 294.77,211.74 289.01,197.84 		"/>
		<polygon class="st11" points="243.9,19.82 257.57,21.75 262.14,33.01 248.7,31.34 		"/>
		<polygon class="st11" points="295.49,112.92 282.07,111.23 277.02,99.46 290.7,101.62 		"/>
		<polygon class="st11" points="324.04,181.52 328.36,192.57 314.92,191.1 310.12,179.36 		"/>
		<polygon class="st11" points="263.35,6.85 273.91,7.82 277.25,15.49 266.97,15.25 		"/>
		<polygon class="st11" points="296.46,86.74 306.78,87.25 310.12,95.14 300.05,95.14 		"/>
		<polygon class="st11" points="343.24,175.31 333.16,175.03 329.8,166.63 340.11,167.37 		"/>
	</g>
</g>
</svg>
